HIERARCHY
ROOT Hips
{
	OFFSET	0	0	0
	CHANNELS 6  Xposition Yposition Zposition Xrotation Yrotation Zrotation
	JOINT Spine
	{
		OFFSET	0	0.0328084	0
		CHANNELS 6  Xrotation Yrotation Zrotation Xposition Yposition Zposition
		JOINT Spine1
		{
			OFFSET	0	0.334509	-0.0597337
			CHANNELS 6  Xrotation Yrotation Zrotation Xposition Yposition Zposition
			JOINT Spine2
			{
				OFFSET	0	0.25357	0.0271788
				CHANNELS 6  Xrotation Yrotation Zrotation Xposition Yposition Zposition
				JOINT Spine3
				{
					OFFSET	0	0.303447	0.0901979
					CHANNELS 6  Xrotation Yrotation Zrotation Xposition Yposition Zposition
					JOINT Spine4
					{
						OFFSET	0	0.449197	-0.0459949
						CHANNELS 3  Xrotation Yrotation Zrotation
						JOINT Neck
						{
							OFFSET	0	0.214444	-0.15023
							CHANNELS 3  Xrotation Yrotation Zrotation
							JOINT Head
							{
								OFFSET	0	0.257452	-0.0770565
								CHANNELS 3  Xrotation Yrotation Zrotation
								End Site
								{
									OFFSET	0	0.537006	-0.0259842
								}
							}
						}
					}
					JOINT LeftShoulder
					{
						OFFSET	-0.129025	0.545966	-0.257452
						CHANNELS 3  Xrotation Yrotation Zrotation
						JOINT LeftArm
						{
							OFFSET	-0.3343	-0.0770565	0.0988599
							CHANNELS 3  Xrotation Yrotation Zrotation
							JOINT LeftForeArm
							{
								OFFSET	-0.912438	-0.0416452	0.0651288
								CHANNELS 3  Xrotation Yrotation Zrotation
								JOINT LeftHand
								{
									OFFSET	-0.767321	-0.0530262	0.0547706
									CHANNELS 3  Xrotation Yrotation Zrotation
									End Site
									{
										OFFSET	-0.280034	-0.0193519	0.0199872
									}
								}
							}
						}
					}
					JOINT RightShoulder
					{
						OFFSET	0.129025	0.545966	-0.257452
						CHANNELS 3  Xrotation Yrotation Zrotation
						JOINT RightArm
						{
							OFFSET	0.3343	-0.0770565	0.0988599
							CHANNELS 3  Xrotation Yrotation Zrotation
							JOINT RightForeArm
							{
								OFFSET	0.912438	-0.0416452	0.0651288
								CHANNELS 3  Xrotation Yrotation Zrotation
								JOINT RightHand
								{
									OFFSET	0.767321	-0.0530262	0.0547706
									CHANNELS 3  Xrotation Yrotation Zrotation
									End Site
									{
										OFFSET	0.280034	-0.0193519	0.0199872
									}
								}
							}
						}
					}
				}
			}
		}
	}
	JOINT LeftUpLeg
	{
		OFFSET	-0.320471	-0.263949	-0.0588377
		CHANNELS 3  Xrotation Yrotation Zrotation
		JOINT LeftLeg
		{
			OFFSET	0.00548563	-1.32569	-0.0207234
			CHANNELS 3  Xrotation Yrotation Zrotation
			JOINT LeftFoot
			{
				OFFSET	-0.071207	-1.31257	0.112881
				CHANNELS 3  Xrotation Yrotation Zrotation
				JOINT LeftToeBase
				{
					OFFSET	0	-0.111971	-0.297395
					CHANNELS 3  Xrotation Yrotation Zrotation
					End Site
					{
						OFFSET	0	-0.0447883	-0.179154
					}
				}
			}
		}
	}
	JOINT RightUpLeg
	{
		OFFSET	0.320471	-0.263949	-0.0588377
		CHANNELS 3  Xrotation Yrotation Zrotation
		JOINT RightLeg
		{
			OFFSET	-0.00548563	-1.32569	-0.0207234
			CHANNELS 3  Xrotation Yrotation Zrotation
			JOINT RightFoot
			{
				OFFSET	0.071207	-1.31257	0.112881
				CHANNELS 3  Xrotation Yrotation Zrotation
				JOINT RightToeBase
				{
					OFFSET	0	-0.111971	-0.297395
					CHANNELS 3  Xrotation Yrotation Zrotation
					End Site
					{
						OFFSET	0	-0.0447883	-0.179154
					}
				}
			}
		}
	}
}
MOTION
Frames: 9
Frame Time: 0.05
6.9322 5.832 -6.1598 7.771 332.22 17.6664 2.2622 -0.0035294 -4.9726 0.0 0.028718 0.0 1.357 -0.007047 -8.2876 0.0 0.028718 0.0 3.2398 -0.02114 -8.2876 0.0 0.028718 0.0 353.44 -359.98 355.02 0.0 0.028718 0.0 347.26 -359.8 -358.34 341.76 -327.52 344.26 353.82 -311.98 350.6 12.5558 -43.638 27.376 286.98 287.24 -182.8 19.3376 -12.146 2.5722 0.0 8.56 3.804 358.08 310.02 -355.84 351.48 -354.54 221.32 347.2 298.14 -353.08 0.0 5.8974 -20.888 72.424 27.11 -68.598 326.76 -307.36 -36.0 1.21472 0.41188 20.878 319.48 360.0 -36.0 346.14 332.62 356.8 328.06 -358.96 -36.0 35.446 0.34786 -11.1498 341.7 360.0 -360.0
                7.0262 5.8318 -6.0908 7.4502 329.0 19.2018 2.2204 7.495E-4 -5.2862 0.0 0.028386 0.0 1.3324 0.00149616 -8.8104 0.0 0.028386 0.0 3.2806 0.0044884 -8.8104 0.0 0.028386 0.0 353.26 360.0 354.7 0.0 0.028386 0.0 346.8 -359.78 -358.24 341.0 -329.18 345.2 353.66 -314.08 351.2 11.6858 -44.568 25.46 294.32 283.9 -189.094 19.176 -14.0436 2.1564 0.0 10.0846 4.0854 358.24 307.46 -356.18 352.8 -354.28 221.96 347.22 303.42 -353.46 0.0 4.6902 -18.8022 73.3 29.128 -71.068 323.9 -307.8 -36.0 2.7398 0.135096 19.271 318.06 360.0 -36.0 345.24 332.58 358.02 331.54 -357.84 -36.0 33.956 0.20128 -10.434 342.68 360.0 -360.0
                7.1056 5.8358 -6.0096 6.5008 327.8 20.89 2.15 0.007867 -5.5574 0.0 0.027824 0.0 1.2911 0.0157012 -9.262 0.0 0.027824 0.0 3.2778 0.0471 -9.262 0.0 0.027824 0.0 353.18 359.98 354.44 0.0 0.027824 0.0 346.54 -359.78 -358.0 340.68 -330.82 346.3 353.58 -316.16 351.7 10.2132 -46.066 22.24 302.0 281.6 -196.256 19.107 -15.8002 2.951 0.0 11.3196 4.5916 358.48 305.2 -356.72 353.1 -353.2 222.48 347.16 309.5 -354.0 0.0 3.5318 -16.5784 74.574 31.78 -72.98 320.3 -310.78 -36.0 4.8192 0.02697 17.3964 317.26 360.0 -36.0 344.0 331.94 358.26 333.96 -357.34 -36.0 32.336 0.043542 -9.808 343.48 360.0 -360.0
                7.1842 5.837 -5.9 6.39 329.1 21.802 2.1094 0.02379 -5.7214 0.0 0.02684 0.0 1.2689 0.04746 -9.5356 0.0 0.02684 0.0 3.2446 0.142434 -9.5356 0.0 0.02684 0.0 353.24 359.96 354.26 0.0 0.02684 0.0 346.64 -359.76 -358.1 340.8 -332.66 347.94 353.68 -318.4 352.4 8.43 -48.478 18.3492 312.84 280.86 -205.68 19.153 -18.1188 3.16 0.0 12.1468 5.0248 359.06 303.82 -357.96 352.54 -351.84 222.46 347.04 316.24 -354.4 0.0 2.4904 -14.434 76.604 33.264 -73.66 316.7 -315.2 -36.0 8.3038 -0.0062128 15.425 317.06 360.0 -36.0 342.68 330.64 358.16 334.08 -357.08 -36.0 30.078 -0.39466 -9.219 344.0 360.0 -360.0
                7.2532 5.8458 -5.8178 5.561 332.52 22.806 1.69474 0.029726 -5.8532 0.0 0.02538 0.0 1.02098 0.059316 -9.7554 0.0 0.02538 0.0 2.975 0.17795 -9.754 0.0 0.02538 0.0 353.48 359.96 354.14 0.0 0.02538 0.0 346.72 -359.76 -358.06 341.04 -334.64 349.6 353.8 -320.9 353.0 6.425 -51.3 13.9772 322.86 281.32 -214.06 19.3632 -19.9092 3.9044 0.0 12.625 5.7696 359.54 302.86 -359.02 351.38 -349.72 222.52 346.9 323.6 -355.48 0.0 1.7775 -11.9642 78.65 34.32 -73.382 311.62 -320.26 -36.0 13.1348 -0.17553 13.7154 317.48 360.0 -36.0 341.6 328.62 356.46 331.06 -357.3 -36.0 27.468 -0.3747 -8.659 344.26 360.0 -360.0
                7.3238 5.8494 -5.73 4.3742 336.6 23.56 1.28004 0.021118 -6.0106 0.0 0.024034 0.0 0.77104 0.04212 -10.0176 0.0 0.024034 0.0 2.6342 0.126402 -10.0176 0.0 0.024034 0.0 353.92 359.96 353.98 0.0 0.024034 0.0 347.26 -359.76 -358.0 341.88 -336.0 350.88 354.14 -323.8 353.8 4.316 -55.034 9.3864 332.86 283.1 -221.8 19.534 -21.508 4.0456 0.0 12.9638 6.398 359.8 303.0 -359.56 350.26 -347.42 222.8 346.72 331.08 -356.18 0.0 1.04422 -9.2256 80.44 35.22 -73.242 304.78 -325.16 -36.0 17.498 -0.4042 12.335 317.88 360.0 -36.0 341.94 326.68 354.62 324.72 -356.52 -36.0 23.626 -0.274 -7.662 344.2 360.0 -360.0
                7.3872 5.853 -5.621 3.4902 339.86 23.402 0.92546 -0.00138962 -6.0094 0.0 0.022912 0.0 0.55508 -0.0027724 -10.0156 0.0 0.022912 0.0 2.3632 -0.008316 -10.0156 0.0 0.022912 0.0 354.2 -359.98 353.98 0.0 0.022912 0.0 347.52 -359.78 -358.0 342.28 -338.46 351.46 354.34 -326.94 354.34 2.6414 -57.374 5.7376 342.6 285.72 -229.0 19.68 -22.786 3.9874 0.0 13.2286 6.8976 0.4788 56.088 -1.04008 349.34 -345.14 222.6 346.5 337.4 -357.04 0.0 0.41276 -6.4416 81.234 36.464 -72.984 296.26 -329.62 -36.0 21.1 -0.33 11.2442 318.22 360.0 -36.0 342.0 324.78 352.82 316.68 -355.1 360.0 19.0584 -0.16056 -6.449 343.96 360.0 -360.0
                7.4826 5.866 -5.5298 2.5816 343.14 23.46 0.38594 -0.0064576 -6.0958 0.0 0.02239 0.0 0.23062 -0.0128828 -10.1598 0.0 0.02239 0.0 1.88008 -0.038648 -10.1598 0.0 0.02239 0.0 354.88 -359.98 353.9 0.0 0.02239 0.0 348.5 -359.78 -357.96 343.78 -339.94 351.88 354.86 -329.72 354.8 0.38508 -57.282 0.8362 350.62 288.36 -234.62 19.8972 -23.884 4.1486 0.0 13.4218 7.4214 0.652 54.846 -1.4162 348.78 -343.1 223.0 346.28 341.8 -357.66 0.0 0.135046 -3.5356 80.654 37.34 -71.348 289.58 -333.38 -36.0 23.74 -0.22544 10.3878 318.46 360.0 -36.0 346.0 322.46 351.56 305.6 -352.74 -36.0 13.928 -0.099608 -4.8572 343.54 360.0 -360.0
                7.5766 5.8908 -5.4372 2.4556 346.44 22.9 359.84 -359.98 353.86 0.0 0.021928 0.0 359.9 -359.98 349.76 0.0 0.021928 0.0 1.43508 -0.04618 -10.229 0.0 0.021928 0.0 355.46 -359.98 353.86 0.0 0.021928 0.0 349.24 -359.8 -357.96 344.8 -341.28 352.2 355.26 -332.14 355.18 358.16 -302.62 356.0 357.36 290.96 -239.26 20.046 -24.178 4.0426 0.0 13.84 7.8178 0.803 52.64 -1.74394 348.3 -341.18 223.72 346.14 345.38 -358.0 0.0 0.4194 -0.64464 78.02 38.194 -68.346 287.46 -336.6 -36.0 26.034 -0.098914 9.6552 318.64 360.0 -36.0 353.7 320.1 349.42 291.5 -349.04 -36.0 7.375 -0.06252 -2.8104 342.0 360.0 -360.0
